# xmcd
#
# Track frame offsets:
#	150
#	32182
#	56536
#	89810
#	111475
#	136259
#	157345
#	179405
#	205670
#
# Disc length: 3037 seconds
#
# Revision: 0
# Processed by: cddbd v1.5.2PL0 Copyright (c) Steve Scherf et al.
# Submitted via: audiograbber 1.83.01
#
DISCID=860bdb09
DTITLE=David Antony Clark - Sacred Sites
DYEAR=2004
DGENRE=Neo-primal
TTITLE0=The Cape of Restless Souls
TTITLE1=To the Ice God
TTITLE2=Midnight in The Temple of Baal
TTITLE3=The Abbey and the Thorntree
TTITLE4=Ghosts of Culloden
TTITLE5=The Marthyrs' Stone
TTITLE6=Brú na Bóinne (Newgrange)
TTITLE7=Machu Picchu
TTITLE8=The Dreaming Pool
EXTD=
EXTT0=
EXTT1=
EXTT2=
EXTT3=
EXTT4=
EXTT5=
EXTT6=
EXTT7=
EXTT8=
PLAYORDER=
